<?xml version="1.0" encoding="utf-8"?>
<!-- Generator: Adobe Illustrator 24.0.1, SVG Export Plug-In . SVG Version: 6.00 Build 0)  -->
<svg xmlns:xlink="http://www.w3.org/1999/xlink" version="1.1" id="Layer_1" xmlns="http://www.w3.org/2000/svg" x="0px"
     y="0px"
     viewBox="0 0 673 770.8" style="enable-background:new 0 0 673 770.8;" xml:space="preserve">
<style type="text/css">
	.st0{fill:#802932;}
	.st1{font-family:'ArialMT';}
	.st2{font-size:6px;}
</style>
  <text transform="matrix(1 0 0 1 1.000000e-02 5.02)" class="st0 st1 st2">*******************************************************************************************,************************************************************************************************************ </text>
  <text transform="matrix(1 0 0 1 1.000000e-02 12.22)" class="st0 st1 st2">*****************************************************************/************************,********/*/*/*//**,**/*/**********************,************************************************************** </text>
  <text transform="matrix(1 0 0 1 1.000000e-02 19.42)" class="st0 st1 st2">*/*******************************************************************,****************/**/#%%&amp;&amp;&amp;&amp;%&amp;&amp;&amp;&amp;&amp;%%&amp;&amp;&amp;&amp;@&amp;%&amp;&amp;@&amp;&amp;@&amp;&amp;&amp;&amp;@(*//************************************************************************* </text>
  <text transform="matrix(1 0 0 1 535.0237 19.42)" class="st0 st1 st2">D </text>
  <text transform="matrix(1 0 0 1 1.000000e-02 26.62)" class="st0 st1 st2">*/************************************/****************/**************************,**#%&amp;&amp;&amp;&amp;&amp;&amp;&amp;&amp;&amp;@@&amp;&amp;&amp;&amp;%&amp;&amp;&amp;@&amp;&amp;&amp;&amp;@&amp;&amp;&amp;@&amp;&amp;&amp;@&amp;&amp;&amp;&amp;&amp;&amp;@&amp;&amp;&amp;&amp;#/*,*****************************************************************</text>
  <text transform="matrix(1 0 0 1 557.301 26.62)" class="st0 st1 st2"> </text>
  <text transform="matrix(1 0 0 1 1.000000e-02 33.82)" class="st0 st1 st2">***/************************************************************,****************(*#&amp;&amp;@&amp;&amp;&amp;&amp;%%&amp;&amp;&amp;%%@@&amp;@@@&amp;&amp;&amp;&amp;&amp;&amp;@&amp;&amp;&amp;@@&amp;&amp;&amp;@&amp;&amp;@@@&amp;@&amp;&amp;&amp;&amp;&amp;@@&amp;&amp;(**,************************************************************</text>
  <text transform="matrix(1 0 0 1 590.7639 33.82)" class="st0 st1 st2"> </text>
  <text transform="matrix(1 0 0 1 1.000000e-02 41.02)" class="st0 st1 st2">********************************************************************************(#&amp;&amp;&amp;&amp;@&amp;@&amp;&amp;&amp;&amp;&amp;&amp;&amp;&amp;&amp;@&amp;&amp;&amp;&amp;&amp;&amp;@@&amp;&amp;@@&amp;@&amp;&amp;&amp;@@@&amp;&amp;@&amp;@&amp;&amp;@@&amp;@@&amp;&amp;&amp;@@&amp;&amp;@&amp;&amp;%//********************************************************</text>
  <text transform="matrix(1 0 0 1 609.4612 41.02)" class="st0 st1 st2"> </text>
  <text transform="matrix(1 0 0 1 1.000000e-02 48.22)" class="st0 st1 st2">*****************************************************************************//%%&amp;@&amp;&amp;&amp;@&amp;@&amp;&amp;&amp;&amp;@@@&amp;&amp;&amp;&amp;&amp;&amp;&amp;&amp;&amp;&amp;&amp;&amp;%&amp;&amp;&amp;&amp;&amp;&amp;@&amp;@@&amp;&amp;&amp;&amp;&amp;@@@&amp;&amp;@@&amp;@@&amp;@&amp;@@&amp;@&amp;&amp;&amp;&amp;@&amp;@/***************************************************</text>
  <text transform="matrix(1 0 0 1 629.9749 48.22)" class="st0 st1 st2"> </text>
  <text transform="matrix(1 0 0 1 1.000000e-02 55.42)" class="st0 st1 st2">****************************************************************************/(%&amp;&amp;&amp;&amp;@&amp;%&amp;@@&amp;&amp;&amp;&amp;&amp;&amp;&amp;%&amp;%%%%%%%#%%%%%#%%%%&amp;&amp;&amp;&amp;@&amp;@&amp;@@@@@@@&amp;@@@@@@@&amp;@@@@@&amp;&amp;&amp;@@@&amp;((**********************************************</text>
  <text transform="matrix(1 0 0 1 669.0774 55.42)" class="st0 st1 st2"> </text>
  <text transform="matrix(1 0 0 1 1.000000e-02 62.62)" class="st0 st1 st2">****************************************************************************#&amp;%&amp;&amp;&amp;@&amp;@&amp;&amp;&amp;%%%###(((##(((((((((##(((#((###%#%%%&amp;&amp;&amp;@&amp;@@@&amp;@@@@@@@@@@@@@@&amp;&amp;&amp;@@@&amp;/,********************************************</text>
  <text transform="matrix(1 0 0 1 611.6877 62.62)" class="st0 st1 st2"> </text>
  <text transform="matrix(1 0 0 1 1.000000e-02 69.82)" class="st0 st1 st2">***************************************************************************%&amp;&amp;&amp;&amp;&amp;&amp;@&amp;&amp;%###(((((((((///((((((((((((((((((((((##%&amp;&amp;&amp;&amp;@@&amp;@@@@@@@@@@@@@@@@@&amp;&amp;@@@@&amp;*******************************************</text>
  <text transform="matrix(1 0 0 1 585.3762 69.82)" class="st0 st1 st2"> </text>
  <text transform="matrix(1 0 0 1 1.000000e-02 77.02)" class="st0 st1 st2">*************************************************************************/#%&amp;&amp;@&amp;&amp;&amp;%#((((((/((//(//(/////////(((((//(((((((#(((((#%%%&amp;@@@@@@@@@@@@@@@@@@@&amp;@@@@@%*****************************************</text>
  <text transform="matrix(1 0 0 1 574.1233 77.02)" class="st0 st1 st2"> </text>
  <text transform="matrix(1 0 0 1 1.000000e-02 84.22)" class="st0 st1 st2">**************************************************************************%%&amp;&amp;@&amp;#((((//////////////////////(//////(((((((((((((#(#####%%&amp;&amp;@&amp;&amp;@@@@@@@@@@@@@@@@@&amp;%(***************************************</text>
  <text transform="matrix(1 0 0 1 548.2717 84.22)" class="st0 st1 st2"> </text>
  <text transform="matrix(1 0 0 1 1.000000e-02 91.42)" class="st0 st1 st2">**************************************************************************%&amp;&amp;@(((((/////////////////////////////////(/(((((((((((((((###%@&amp;&amp;%&amp;&amp;@@@@@@@@@@@@@@@@@((**************************************</text>
  <text transform="matrix(1 0 0 1 529.9114 91.42)" class="st0 st1 st2"> </text>
  <text transform="matrix(1 0 0 1 1.000000e-02 98.62)" class="st0 st1 st2">*************************************************************************%&amp;&amp;((((////////////////////////////////////(/((((((((((((((((#%%&amp;&amp;&amp;&amp;@@@@@@@@@@@@@@@@@@@#(**************************************</text>
  <text transform="matrix(1 0 0 1 527.2424 98.62)" class="st0 st1 st2"> </text>
  <text transform="matrix(1 0 0 1 1.000000e-02 105.82)" class="st0 st1 st2">************************************************************************&amp;&amp;/(/(////////////////////////////////(*//////((((((((((((((((#%@@&amp;&amp;&amp;&amp;&amp;&amp;@&amp;@@@@@@@@@@@@@@@%/*************************************</text>
  <text transform="matrix(1 0 0 1 522.8245 105.82)" class="st0 st1 st2"> </text>
  <text transform="matrix(1 0 0 1 1.000000e-02 113.02)" class="st0 st1 st2">**********************************************************************(%#((///(/////////////////////////////(/////////((((((((((((((((#&amp;#&amp;%%%#%&amp;&amp;&amp;&amp;&amp;@@@@@@@@@@@@@&amp;&amp;&amp;#*********************************** </text>
  <text transform="matrix(1 0 0 1 1.000000e-02 120.22)" class="st0 st1 st2">*********************************************************************/#(((/////////////////////////////////////////////(((((((((((((#(%#%#%&amp;%&amp;%%@@&amp;@@@@&amp;@&amp;@@@@@@@@@@@%(/******************************** </text>
  <text transform="matrix(1 0 0 1 1.000000e-02 127.42)" class="st0 st1 st2">*********************************************************************#((////////////(////////////////(((///////////(/((((((((((((((#%#%###%&amp;#%%#%&amp;&amp;@&amp;@&amp;@@@@@@@@@@@&amp;@@@#********************************* </text>
  <text transform="matrix(1 0 0 1 1.000000e-02 134.62)" class="st0 st1 st2">********************************************************************/(//////////////////////////////////////////////(((((((((((((((#####%#%%%%&amp;%%#%&amp;&amp;@&amp;@@&amp;@@@@@@@@@@@@&amp;(/******************************* </text>
  <text transform="matrix(1 0 0 1 1.000000e-02 141.82)" class="st0 st1 st2">********************************************************************#(((////////////////////////////////*///////(/((((((((((((((((((((##%#%%%#%%%#%&amp;%&amp;&amp;@@@@@@@@@@@@@@@@(******************************** </text>
  <text transform="matrix(1 0 0 1 1.000000e-02 149.02)" class="st0 st1 st2">*******************************************************************/#%#((///******/**/////*///////////////(/////((/(((((((((((((((((((####%%&amp;##%%&amp;&amp;&amp;@&amp;@&amp;@&amp;@@@@@@@@@@@@@&amp;******************************** </text>
  <text transform="matrix(1 0 0 1 1.000000e-02 156.22)" class="st0 st1 st2">****************************************************************/&amp;&amp;&amp;&amp;&amp;%&amp;%%#(///**************////(((##%%######%######(#(((((#((((((((######%%%%&amp;%&amp;&amp;&amp;&amp;@&amp;@&amp;&amp;@@&amp;@@@@@@@&amp;@@%(*******************************</text>
  <text transform="matrix(1 0 0 1 589.8 156.22)" class="st0 st1 st2"> </text>
  <text transform="matrix(1 0 0 1 1.000000e-02 163.42)" class="st0 st1 st2">***************************************************************(%&amp;%%%%%%&amp;&amp;&amp;&amp;&amp;%(/////****//////(%#&amp;%&amp;&amp;&amp;&amp;&amp;&amp;%%&amp;&amp;%&amp;%%&amp;%%#&amp;%%%##(#(#(((((((####%%%%%%&amp;&amp;&amp;&amp;@&amp;&amp;&amp;&amp;&amp;@@@@@@@@@@@@#&amp;********************************</text>
  <text transform="matrix(1 0 0 1 640.135 163.42)" class="st0 st1 st2"> </text>
  <text transform="matrix(1 0 0 1 1.000000e-02 170.62)" class="st0 st1 st2">***************************************************************/##(//(////(##%%#(//////////(##%%%%&amp;%&amp;%&amp;%%%#%%%%&amp;%%%%%%&amp;&amp;%&amp;%%%###((#((#####%%%&amp;&amp;%&amp;&amp;@&amp;@@@&amp;&amp;&amp;@&amp;@&amp;@@@@@@@@@&amp;******************************** </text>
  <text transform="matrix(1 0 0 1 1.000000e-02 177.82)" class="st0 st1 st2">****************************************************************((/////*//(((/((#((//////((###%%%###((((/////((((##(#####%%%&amp;%#((##########%&amp;&amp;%&amp;&amp;&amp;&amp;@&amp;@&amp;&amp;@&amp;@&amp;@@&amp;@@@@&amp;@@@((******************************* </text>
  <text transform="matrix(1 0 0 1 1.000000e-02 185.02)" class="st0 st1 st2">*****************************************************************(((##((##((((((//(/////((##%%%%%%(((//////////((((#########%%%(##(#(####(#%%&amp;%&amp;&amp;&amp;&amp;@&amp;@&amp;&amp;@@&amp;&amp;&amp;&amp;@@@@@@@@##******************************** </text>
  <text transform="matrix(1 0 0 1 1.000000e-02 192.22)" class="st0 st1 st2">*****************************************************************((%&amp;%&amp;@@&amp;%#%##(((//////((##%%&amp;&amp;&amp;%###%%&amp;&amp;&amp;&amp;&amp;#(#(%&amp;%#%#%%%%#%%######(((((((##%&amp;&amp;&amp;@@&amp;@&amp;@&amp;&amp;@@@&amp;&amp;&amp;@@@@@&amp;@@%*/*******************************</text>
  <text transform="matrix(1 0 0 1 636.4114 192.22)" class="st0 st1 st2"> </text>
  <text transform="matrix(1 0 0 1 1.000000e-02 199.42)" class="st0 st1 st2">******************************************************************#%(/%&amp;%&amp;/*/(#%%//////((((########&amp;@&amp;(&amp;//&amp;&amp;%#%%&amp;@&amp;%#&amp;&amp;&amp;%%%%######(##((((##%%%&amp;@@&amp;@@@&amp;&amp;&amp;&amp;&amp;@&amp;&amp;@@@&amp;&amp;@&amp;@@/*********************************</text>
  <text transform="matrix(1 0 0 1 617.5764 199.42)" class="st0 st1 st2"> </text>
  <text transform="matrix(1 0 0 1 1.000000e-02 206.62)" class="st0 st1 st2">*****************************************************************((((((/////((((//////((((((((##(######%#%%#((((%%%%%%%%%%%#####(##(((#(((##%%@@@@@@@&amp;@&amp;%&amp;&amp;&amp;@&amp;#((&amp;@&amp;@&amp;/********************************* </text>
  <text transform="matrix(1 0 0 1 1.000000e-02 213.82)" class="st0 st1 st2">*****************************************************************(((((((((//(/(/(((/*/(((((((((((((####(((((((((((#######((((((((((((((((##%%%&amp;@@&amp;&amp;&amp;&amp;%%&amp;##(/((#%@@%##%/,*******************************/ </text>
  <text transform="matrix(1 0 0 1 1.000000e-02 221.02)" class="st0 st1 st2">****************************************************************((((//*////*//(((////((((((((((((((((((((((########((##((((((((((((((#(####%%&amp;&amp;@@&amp;&amp;%##((##%%&amp;%%%&amp;&amp;&amp;@&amp;#********************************** </text>
  <text transform="matrix(1 0 0 1 1.000000e-02 228.22)" class="st0 st1 st2">***************************************************************((///////////(((((/((((((((((#(((((//(/////////(///((((((((((((((((((((#####%&amp;&amp;@&amp;@%%#####%&amp;&amp;&amp;&amp;%%#((&amp;&amp;&amp;#********************************** </text>
  <text transform="matrix(1 0 0 1 1.000000e-02 235.42)" class="st0 st1 st2">**************************************************************//////(//////((((/((((((###((((((((((/(/((///((((///(/((((((((((((((((##(####%&amp;&amp;&amp;&amp;%%###%%%%#&amp;&amp;(((((%&amp;%%%/*******************************/* </text>
  <text transform="matrix(1 0 0 1 1.000000e-02 242.62)" class="st0 st1 st2">*************************************************************/////////////((((//((((((((#(((##(#(((/((///(///////(///(/((((((((((((#########%%&amp;&amp;%%###%%@@@@%###((%%#%#********************************** </text>
  <text transform="matrix(1 0 0 1 1.000000e-02 249.82)" class="st0 st1 st2">*************************************************************(////////////*///(/(((((((#(#((#####((((((((//(////(((/(((((((((((((((##########%%&amp;###(((&amp;&amp;&amp;&amp;&amp;&amp;&amp;%%#(#%###********************************** </text>
  <text transform="matrix(1 0 0 1 1.000000e-02 257.02)" class="st0 st1 st2">************************************************************/////////////////((#%%%###############((((((((////////(((((((((((((((##(########%%%%#(((((%%%#%%%%###%(#(*********************************** </text>
  <text transform="matrix(1 0 0 1 1.000000e-02 264.22)" class="st0 st1 st2">************************************************************//////////////((###%%&amp;@@@@@@&amp;#%%%%%###((((((/(((///((((((((((((((((###############%#######%(((/(##/(&amp;##*********************************/***</text>
  <text transform="matrix(1 0 0 1 529.7942 264.22)" class="st0 st1 st2"> </text>
  <text transform="matrix(1 0 0 1 1.000000e-02 271.42)" class="st0 st1 st2">*************************************************************(////////////((((((#%%%%%%%%%%&amp;&amp;%((((((/((((((((((((((((((((((((###############%%#####%%(##((((/(#&amp;(%************************************** </text>
  <text transform="matrix(1 0 0 1 1.000000e-02 278.62)" class="st0 st1 st2">*************************************************************(//////////((((((((((######%%%%((((((/(///(((((((((/(((((((#############%#####%#%%####((((((#%%&amp;%(#**************************************** </text>
  <text transform="matrix(1 0 0 1 1.000000e-02 285.82)" class="st0 st1 st2">**************************************************************(((//////((((((((((((((((((((((((//(///(((((/(((((((((##(###############%%%%####%###########(((%****************************************** </text>
  <text transform="matrix(1 0 0 1 1.000000e-02 293.02)" class="st0 st1 st2">**************************************************************////////(((((((((##(/////((((/((((((((/((/(((((((((############%#%%%%##%#%#%#%%%%#%#########(********************************************* </text>
  <text transform="matrix(1 0 0 1 1.000000e-02 300.22)" class="st0 st1 st2">***************************************************************(//////////((((///((((((/(((((((#(((((((((((((((((############%%%%%#########%#%%%&amp;&amp;&amp;&amp;&amp;%%&amp;(*********************************************** </text>
  <text transform="matrix(1 0 0 1 1.000000e-02 307.42)" class="st0 st1 st2">***************************************************************//(///(##(##((########%%%%%%##########((((((#(((((((#######%%%%#%#######%####%%&amp;&amp;%%%%%&amp;#****************************************/*****/** </text>
  <text transform="matrix(1 0 0 1 1.000000e-02 314.62)" class="st0 st1 st2">****************************************************************(///((##((#(((((/((#(#(((#%&amp;&amp;@@@@@@@%#((((((((((((#######%#########%#%%%###%#%%%%%%%#/************************************************** </text>
  <text transform="matrix(1 0 0 1 1.000000e-02 321.82)" class="st0 st1 st2">****************************************************************((///(((((((///////((((////(((###(#(#%##((((#((((###########%######%%%####%%#%%%%%%#///************************************************* </text>
  <text transform="matrix(1 0 0 1 1.000000e-02 329.02)" class="st0 st1 st2">*****************************************************************((/(/(((////((((((((((((((((((((((((((((((((###%#####################%%%%%%%%%##%#(//*************************************************/ </text>
  <text transform="matrix(1 0 0 1 1.000000e-02 336.22)" class="st0 st1 st2">*****************************************************************#(((((/((/(((/((((((#(#(((#((##(##(#((((#(#####%%#%%#%########%####%%%%%%%&amp;&amp;%#####//////*********************************************** </text>
  <text transform="matrix(1 0 0 1 1.000000e-02 343.42)" class="st0 st1 st2">******************************************************************((((((/////((((((((((((((#(#(############%#%%##%%########%###%%##%%%%%%%%%%%####//////******************************************/***** </text>
  <text transform="matrix(1 0 0 1 1.000000e-02 350.62)" class="st0 st1 st2">***************************************************************/*/%(((//(((/((((((((((/((((((((((#########%#%%#%#%%####%#####%#%%%%%%%%%%%%%%####(/////////********************************************* </text>
  <text transform="matrix(1 0 0 1 1.000000e-02 357.82)" class="st0 st1 st2">***************************************************************/////////((///////(%%#(((((((((((#(#########%%%%##%%%#####%#&amp;%%%%%%%%%%%%&amp;%%%%####//////////*******************************/************* </text>
  <text transform="matrix(1 0 0 1 1.000000e-02 365.02)" class="st0 st1 st2">*************************************************************////////((/////(((((((((((#%##(##(#(#######%#######%%%##%#%##%%%%%%&amp;%%&amp;&amp;%&amp;%%%%%####(///////////*********************************/********** </text>
  <text transform="matrix(1 0 0 1 1.000000e-02 372.22)" class="st0 st1 st2">**********************************************************/////////(((((////////(((##((###%###%######%###%%##%##%#%%#%#%%%%&amp;%%&amp;&amp;%%%%&amp;%%%%&amp;%%####(////////////**********************************/****//*/ </text>
  <text transform="matrix(1 0 0 1 1.000000e-02 379.42)" class="st0 st1 st2">***************************************////(//////((((((((((((/////////////((#(/((####(((((#%####%%#%%%#%%%%%%#%%%%#%%%%%&amp;%%%&amp;&amp;&amp;&amp;&amp;%&amp;%%%%%%%#####//////////////********************************/*****/*** </text>
  <text transform="matrix(1 0 0 1 1.000000e-02 386.62)" class="st0 st1 st2">*************************************/*******/////////////////(((((#(((///(((##/((((#%%##((((%##%%%%%#%%%%%%%%%%%%%%%%&amp;&amp;&amp;&amp;&amp;&amp;&amp;&amp;&amp;&amp;%&amp;%%&amp;%%%%%%#####////////////////******************/**********/*******/** </text>
  <text transform="matrix(1 0 0 1 1.000000e-02 393.82)" class="st0 st1 st2">********************************************//////%//////////////((####((((((##((((((@&amp;&amp;&amp;%%##(%%%%%%%%%%&amp;%%&amp;&amp;&amp;&amp;%&amp;&amp;&amp;&amp;&amp;&amp;&amp;@@&amp;&amp;&amp;&amp;%&amp;%&amp;&amp;&amp;%%%%%%#######(///////////////****************************************</text>
  <text transform="matrix(1 0 0 1 574.8704 393.82)" class="st0 st1 st2"> </text>
  <text transform="matrix(1 0 0 1 1.000000e-02 401.02)" class="st0 st1 st2">******************************************//////#(((@(//////(((((########(((((#((//(((@@&amp;&amp;&amp;&amp;&amp;&amp;&amp;&amp;&amp;&amp;&amp;&amp;&amp;&amp;&amp;%&amp;&amp;&amp;&amp;&amp;&amp;&amp;&amp;&amp;&amp;&amp;&amp;&amp;&amp;&amp;&amp;&amp;%%%%&amp;%%%%%%%%%%########/////////(///////*********/*******************//****//**</text>
  <text transform="matrix(1 0 0 1 566.1985 401.02)" class="st0 st1 st2"> </text>
  <text transform="matrix(1 0 0 1 1.000000e-02 408.22)" class="st0 st1 st2">*********************************//******/(((((((((##%@%###%@//(((((((%#((((((#(((((((@&amp;&amp;&amp;@&amp;&amp;&amp;&amp;&amp;&amp;&amp;&amp;&amp;&amp;&amp;&amp;&amp;&amp;&amp;&amp;&amp;&amp;&amp;&amp;&amp;&amp;&amp;&amp;&amp;&amp;%&amp;&amp;%%%%%%%%%%%%%%%#(#######(@&amp;@%#%/(/(///////*************************/**********//</text>
  <text transform="matrix(1 0 0 1 602.4387 408.22)" class="st0 st1 st2"> </text>
  <text transform="matrix(1 0 0 1 1.000000e-02 415.42)" class="st0 st1 st2">********************************//********////(@&amp;&amp;%%%%&amp;@@&amp;&amp;@#(((((((((##((((((##((((((%%%%&amp;&amp;&amp;&amp;&amp;&amp;&amp;&amp;&amp;&amp;&amp;&amp;&amp;&amp;&amp;&amp;&amp;&amp;&amp;%&amp;%%%%%%&amp;%&amp;%&amp;%%%%%%%%%%%##(#########(@@%###%//////////*************/******************//***</text>
  <text transform="matrix(1 0 0 1 624.4729 415.42)" class="st0 st1 st2"> </text>
  <text transform="matrix(1 0 0 1 1.000000e-02 422.62)" class="st0 st1 st2">*******************************(/*******/*//((((((#@@@&amp;@@@@@#(((((((((##((((##%###(####%/((#(((####%##%%%%%%&amp;%%%%%%%%%&amp;%%%%&amp;%&amp;%&amp;%%%%#(((###########&amp;####(%%/(/(///*/*************/******//**/**//****///</text>
  <text transform="matrix(1 0 0 1 610.6477 422.62)" class="st0 st1 st2"> </text>
  <text transform="matrix(1 0 0 1 1.000000e-02 429.82)" class="st0 st1 st2">******************************/**********///(((((###&amp;@@@@@@@@@#(((#####(#####%%#%%%&amp;&amp;#(((((((((((######%%%%%%%%%%%%%%%%%%&amp;%%%&amp;%%%%#(#((######%%####%######(##///////***************************/****/***</text>
  <text transform="matrix(1 0 0 1 633.4524 429.82)" class="st0 st1 st2"> </text>
  <text transform="matrix(1 0 0 1 1.000000e-02 437.02)" class="st0 st1 st2">****************************//*,,,,***//////((((###%@&amp;@@@@@@#(((#%###%%####%%&amp;%&amp;&amp;&amp;%%//////((((((((((####%%%%%%%%%%%%%%%%%%%%%%%#(((((((######%###%&amp;###(###%####////*********/*/***/**/******************</text>
  <text transform="matrix(1 0 0 1 618.5754 437.02)" class="st0 st1 st2"> </text>
  <text transform="matrix(1 0 0 1 1.000000e-02 444.22)" class="st0 st1 st2">***************************/**,,,,,***///(((((((##%&amp;@@@@@@@%##(#%%&amp;%%&amp;%%%%%%%&amp;%%%//////////((((((((((####%%%%%%%%%%%%%%%%%%%%#((((((###(####%%%#%%#*####%#/#####(////*******/**/****************/////***</text>
  <text transform="matrix(1 0 0 1 625.551 444.22)" class="st0 st1 st2"> </text>
  <text transform="matrix(1 0 0 1 1.000000e-02 451.42)" class="st0 st1 st2">**************************/**,,,,,***///(((((((#####&amp;@@@@@%%%#%%&amp;&amp;&amp;&amp;&amp;&amp;&amp;&amp;&amp;&amp;%%%%%%/////////////((((((((#####%%%%%%%%%%%%%%###((((#(((((#######&amp;%%%#####((##%%#/(*#/#/*****/*********/**/****/*/*****////**</text>
  <text transform="matrix(1 0 0 1 596.0403 451.42)" class="st0 st1 st2"> </text>
  <text transform="matrix(1 0 0 1 1.000000e-02 458.62)" class="st0 st1 st2">*************************/**,,,,***////((((((((#####&amp;&amp;@@@@@&amp;&amp;&amp;&amp;%%&amp;&amp;&amp;&amp;%%&amp;@&amp;&amp;%%%%&amp;/////////////////(((((########%#%%%######((((((((((((((###%%&amp;&amp;##(######((######((##%*****/***************/*//****/**/**/</text>
  <text transform="matrix(1 0 0 1 567.4612 458.62)" class="st0 st1 st2"> </text>
  <text transform="matrix(1 0 0 1 1.000000e-02 465.82)" class="st0 st1 st2">************************/*,,,,,****///(((((((((####&amp;&amp;&amp;@@@@@@&amp;&amp;%@&amp;%%%%%%%%%%%%%%@(///////////////(/(((((((########%%%###(/(((((((((#((((###%&amp;#%#(##(*/##(((####*(/#####%%*****/****/***/*****///******/*/</text>
  <text transform="matrix(1 0 0 1 571.9348 465.82)" class="st0 st1 st2"> </text>
  <text transform="matrix(1 0 0 1 1.000000e-02 473.02)" class="st0 st1 st2">**********************/**,,,,,,****//((((((((((###%%&amp;#((#&amp;@&amp;&amp;@@@&amp;&amp;&amp;%%%%%%%%%%&amp;&amp;&amp;((//////////////////(((#(############(/(((((((((((((((##%%%#(*(#*####/##%##/####(###%##(%##/#(%******/******//*/**///***</text>
  <text transform="matrix(1 0 0 1 559.2551 473.02)" class="st0 st1 st2"> </text>
  <text transform="matrix(1 0 0 1 1.000000e-02 480.22)" class="st0 st1 st2">**********************/**,,,,,***//(((/((((#######%&amp;%#(((&amp;%%%%%%%%%%%%%%%%(%&amp;#%@%(#//////////////(///(((((((#######((((((((((((((((((##%%/%(#####*###((%###*#/#####(#(*%(########%###*****/**/***///*//*</text>
  <text transform="matrix(1 0 0 1 566.6497 480.22)" class="st0 st1 st2"> </text>
  <text transform="matrix(1 0 0 1 1.000000e-02 487.42)" class="st0 st1 st2">***********************,,,,,***////(((((((#####%%%%&amp;((((((%%%%%%%%%%%%%%%(%&amp;&amp;&amp;&amp;&amp;@#(////////(/((((((((((((((######(((((//(((((((((########%(/##(%#%##((#%#%##%(#(%####/##*%#*###%(#%#/#(####%/***/*/*////</text>
  <text transform="matrix(1 0 0 1 583.2932 487.42)" class="st0 st1 st2"> </text>
  <text transform="matrix(1 0 0 1 1.000000e-02 494.62)" class="st0 st1 st2">**************/**/**,,,,,,,,***////((((((####%%%##%((((((((##%%%%%%%%%%###%%&amp;&amp;%@@%#((////////(((((((((((((((####(((////(//(((((((#####(&amp;@@@@@@&amp;/#,(#(#*(#(#%/######((%##((##(/##%#(###/###%#(###/(*///*/</text>
  <text transform="matrix(1 0 0 1 574.8997 494.62)" class="st0 st1 st2"> </text>
  <text transform="matrix(1 0 0 1 1.000000e-02 501.82)" class="st0 st1 st2">***************/**,,,,,,,,,***////(/((((####%%%#%%&amp;(((#((#######%%%%%%#####%%%&amp;&amp;%@%##((/////((((((((((((((((#(((((//////(((((((##%##%#&amp;&amp;@@@@@@@@@&amp;(,###(/,######((%#######%######(%####(##((/###(%###%**</text>
  <text transform="matrix(1 0 0 1 607.1321 501.82)" class="st0 st1 st2"> </text>
  <text transform="matrix(1 0 0 1 1.000000e-02 509.02)" class="st0 st1 st2">************/***,,,,,,,,,*******///((((######%#%%%##(#######%%%%%%%%%%%##*#(%#%%%#&amp;&amp;%##(((/(((((####(##((((((((((/////////((#(((#(#(%%%%&amp;&amp;&amp;@@@@@@@@@%/##(##*#(####/(%#*##(#####%#%######%#####((#####/##</text>
  <text transform="matrix(1 0 0 1 634.1028 509.02)" class="st0 st1 st2"> </text>
  <text transform="matrix(1 0 0 1 1.000000e-02 516.22)" class="st0 st1 st2">***********//**,,,,,,,,,,,***//(((((((######%%%%%&amp;#%####%%%%%%%%%&amp;%*#####%#%(///(%##&amp;&amp;&amp;%##((((((#######((((((((((///////(((((#####(#%##%&amp;@&amp;@@@@@@@@@@@@%(####(((########%###*##(%%%%%#((####%###((##%##/</text>
  <text transform="matrix(1 0 0 1 654.7805 516.22)" class="st0 st1 st2"> </text>
  <text transform="matrix(1 0 0 1 1.000000e-02 523.42)" class="st0 st1 st2">*******/(/**,,,,,,,,,,,,****//((((%%%%%%%%%%%%%%%%%%%%%%%&amp;%%&amp;%%%#%####%#&amp;(%##(/####%#&amp;&amp;&amp;&amp;%%##############((((((////////((((##((##/(%%&amp;%#&amp;@@@@@@@@@@@@@&amp;@@@&amp;(%%(#(##%(##/%####((##(%#%####%#*/###((/#(#*#</text>
  <text transform="matrix(1 0 0 1 703.0618 523.42)" class="st0 st1 st2"> </text>
  <text transform="matrix(1 0 0 1 1.000000e-02 530.62)" class="st0 st1 st2">*****(/***,,,,,,,,,,,,****///(((####%%%&amp;&amp;&amp;&amp;%%%%%%%&amp;&amp;%%&amp;&amp;&amp;&amp;&amp;&amp;%@&amp;(#####%%%#((###/#/#%%%%&amp;&amp;&amp;&amp;&amp;&amp;%%############((((////////(((#(##/##((%##%#%@&amp;@@@@@&amp;@&amp;@&amp;@&amp;@@@@@@%(%#%#%###%#%*(#(##*#/%###/((*###((###%/####</text>
  <text transform="matrix(1 0 0 1 696.092 530.62)" class="st0 st1 st2"> </text>
  <text transform="matrix(1 0 0 1 1.000000e-02 537.82)" class="st0 st1 st2">****/(*,,,,,*,,,,,********//(##%%%%%%%%%%%%%%%%%%&amp;&amp;%&amp;&amp;&amp;%&amp;@@@%%#%%%&amp;%&amp;%%(#(/(###%%%%%###&amp;&amp;&amp;&amp;&amp;&amp;&amp;%%########((//////////////#(((#(##%(%(*#%@@#&amp;##/#%&amp;&amp;#&amp;@&amp;@@@@@@&amp;&amp;%##%##/#%###%###%##%%(####/%%####%%#*###(#</text>
  <text transform="matrix(1 0 0 1 727.0911 537.82)" class="st0 st1 st2"> </text>
  <text transform="matrix(1 0 0 1 1.000000e-02 545.02)" class="st0 st1 st2">***(//,,,,,,,,,,******/*///(((/(#%%%%%%%%%%%%%%%%%%&amp;&amp;@@@@&amp;%###%%%%&amp;&amp;&amp;%%%(%#%%%%%#%/##%*#*%&amp;&amp;%%%%##(((/(////(////////*%#(*#*###(%#&amp;&amp;%#%@%%###/%%%##&amp;&amp;#@@@@@&amp;@%&amp;&amp;%#&amp;######%#####/#%#(#%#(/###*##%#(##(#(#(</text>
  <text transform="matrix(1 0 0 1 717.9739 545.02)" class="st0 st1 st2"> </text>
  <text transform="matrix(1 0 0 1 1.000000e-02 552.22)" class="st0 st1 st2">*/((*,,,,,,**********//////(((((####%%%%%%%%&amp;%%%%%@@@&amp;((*(###%%%%&amp;%%%%%%%%%%%#(#%%##(,#.#((#((/(((//((((//////////(#####(##(#%#(/%(/&amp;&amp;%##%%/%/#%*%%%/%(%##%%%&amp;%%(#/(#(###((###*##%%#####(###%#########(#</text>
  <text transform="matrix(1 0 0 1 659.5413 552.22)" class="st0 st1 st2"> </text>
  <text transform="matrix(1 0 0 1 1.000000e-02 559.42)" class="st0 st1 st2">/(/****,**,,********/////(((((#######%%%%%%%#%%%%%(#(##(#%#%###&amp;%%#%#%%%%#%#%%(#&amp;&amp;&amp;#((#(((((#/((((((((((((//(//%(####/#(((((.#(((#&amp;&amp;&amp;%(##%%#(##%%%%%#(((########%(%#%(#%###%%%%#%#(#/#####(##(####((#(#(</text>
  <text transform="matrix(1 0 0 1 640.9202 559.42)" class="st0 st1 st2"> </text>
  <text transform="matrix(1 0 0 1 1.000000e-02 566.62)" class="st0 st1 st2">#/**,,,*,,**********////(/(/(########%%%%%#(##*#/(((%##(#%####%%%%##%%#%##%%%%##%&amp;%&amp;%%##/(%##%%(((((((((((#/#((((#/#*((%%&amp;&amp;&amp;&amp;%&amp;%&amp;&amp;&amp;&amp;#.(#%%,#*##(/#/((/#(#(#(#(##(/#&amp;%##,(#,##%#/%#####(/(#%(########((/#</text>
  <text transform="matrix(1 0 0 1 629.2922 566.62)" class="st0 st1 st2"> </text>
  <text transform="matrix(1 0 0 1 1.000000e-02 573.82)" class="st0 st1 st2">/**/*,*,*,**********/////(((((((##%###%%%%%%###(#(#%###%%%%#####%#####%%##/#/##(##/&amp;%####(%&amp;/(#*/((((((/#/(((%%@@@@@&amp;&amp;&amp;&amp;&amp;&amp;&amp;&amp;&amp;@&amp;&amp;@&amp;#((%#%#/#*###,#*#(###(#%##########(##(#%%%######(#/##(#%#(######(#,(#(</text>
  <text transform="matrix(1 0 0 1 650.6438 573.82)" class="st0 st1 st2"> </text>
  <text transform="matrix(1 0 0 1 1.000000e-02 581.02)" class="st0 st1 st2">/******,*,*********//////((((########%%%#####/#(#%%%##%%%/####(%####*#*####%%#((*##%#%#**.,,./@(*#(((#%&amp;&amp;&amp;(@&amp;&amp;@&amp;@&amp;&amp;#&amp;&amp;%&amp;%&amp;%&amp;&amp;&amp;#%#######((/(/(##,((#(#(#(/##(#((((((###%####*###(#//#/(((######(##(#.##*( </text>
  <text transform="matrix(1 0 0 1 1.000000e-02 588.22)" class="st0 st1 st2">***,*/***,*,********////(((#########%%#####%%####%##(#%#/#####(((#(#%#(##*#*###((##%%%(#,.*/*,#%@%##%%&amp;&amp;&amp;@@%&amp;&amp;@&amp;%&amp;&amp;%%%&amp;%&amp;&amp;%##/(*########(#(###/#####%##((#(#%########*#####/###*###(#(((###########(##(# </text>
  <text transform="matrix(1 0 0 1 1.000000e-02 595.42)" class="st0 st1 st2">,**,****,**,******////((((((((####%%%%(###%#%##(##%(%&amp;%########(######(#######(#%(##%%#(#(,,&amp;%##*#%&amp;#%%%%&amp;&amp;&amp;%#####(,#,(###/#####%#%(/######(((#((#(##(#,#,##((((#######/#%#######*###(#(%.###*#((/#/(#*(</text>
  <text transform="matrix(1 0 0 1 616.3665 595.42)" class="st0 st1 st2"> </text>
  <text transform="matrix(1 0 0 1 1.000000e-02 602.62)" class="st0 st1 st2">,******,*********/////(((((((#####%%%##/###/####(%(#&amp;%#(#########%###########(###(((##%#/%/#%%##(%##/##(#######%(%#%####%//#(##.((##%(%#####(###(((((((*(*((####%#%####/###(#####/(#(%#(####(#*#(####*(#</text>
  <text transform="matrix(1 0 0 1 608.3772 602.62)" class="st0 st1 st2"> </text>
  <text transform="matrix(1 0 0 1 1.000000e-02 609.82)" class="st0 st1 st2">*,**,,**,,,***///////(((((((#(####%%#%#########%#(#%%&amp;((##/#/#((#%%##((/###/####%&amp;.%###%%#/((((%%##*###(#(##,##(#%(#((###%(&amp;(#%#(%####/((((##(((*(*#/(#(/#((###((#(########%#%#########(*%##%(#((##((((#</text>
  <text transform="matrix(1 0 0 1 594.6311 609.82)" class="st0 st1 st2"> </text>
  <text transform="matrix(1 0 0 1 1.000000e-02 617.02)" class="st0 st1 st2">,*,,*********//////((((((((##########%###(((###/##%%(%/#(%%%%##*#*#%########*(##%&amp;((#&amp;#%*#%##(#####(##%%%#####%##%###(##&amp;#((##(((/(#*/*(##(#(((/*(%((##(*(#(*####(##((##(######(#((%#*#/#%%(%(##%##(#((.</text>
  <text transform="matrix(1 0 0 1 604.3196 617.02)" class="st0 st1 st2"> </text>
  <text transform="matrix(1 0 0 1 1.000000e-02 624.22)" class="st0 st1 st2">*******,****/////(/((((((((#####%%#/(#%##*((#%*##%#%&amp;%###(%###(##(##########((##%#&amp;/((&amp;#%(%#%%/(#*#((,#%#%*(##,#/##((((//((/((###(#(##(#(*(*(((%%##(#####((/#/(((/##(##%&amp;######((*(#%%#%(#%#.((#((#((#/,</text>
  <text transform="matrix(1 0 0 1 582.9211 624.22)" class="st0 st1 st2"> </text>
  <text transform="matrix(1 0 0 1 1.000000e-02 631.42)" class="st0 st1 st2">,*,*,,*,****/////((((((((######%%%%#/###(#*##/#/###/%%######/#(##%%%&amp;##*(.((((%##%&amp;(#%%#######(#(##(%##*#((#######((####(#//*/#####(((((#((##(((((,((#((#((#(,#((,%#((.#*(##(%###(#,%###%%%##(/%*#%#(./(</text>
  <text transform="matrix(1 0 0 1 583.6067 631.42)" class="st0 st1 st2"> </text>
  <text transform="matrix(1 0 0 1 1.000000e-02 638.62)" class="st0 st1 st2">,,,,,*****////(/(((((((#(#####%%%%####%%##((#%#%%##%%%%%%#%%((#(#/#%##(#(((/,(,(#/%&amp;(####(###%###(#/###(##((*(#((%(%#(##((#((((,(#%#(%#%#(%###*/((.(.#(((((((##(#%#(##(#(#(((((#/#%%%%#(####((####(((#((</text>
  <text transform="matrix(1 0 0 1 598.2112 638.62)" class="st0 st1 st2"> </text>
  <text transform="matrix(1 0 0 1 1.000000e-02 645.82)" class="st0 st1 st2">*,,,*****/////(((((#((#######%##%(####%%((#########%%(#%%###########(#/((((((((##(#%%((%#######(*#(#%(#/#*#*#(#(#*(*((((%#((/%##(,(((,(.(((((((((#((#(#/%#%(((#/((###/#(%##%/#*#/(%*%#(###((/%%(%#(/((&amp;# </text>
  <text transform="matrix(1 0 0 1 1.000000e-02 653.02)" class="st0 st1 st2">**,,****/////(((((#((#########(###%##%%#(*#####(###%%%%###(##%#%###(%#((( #/((/%%%%#&amp;##%###(##%%##&amp;#&amp;#(((#(##(#%###(###(/(((##(,##((((((((((#((#(#((/((((/((((((((#((((/((######((%%#%(##&amp;#((#%/#(##(#//</text>
  <text transform="matrix(1 0 0 1 584.5559 653.02)" class="st0 st1 st2"> </text>
  <text transform="matrix(1 0 0 1 1.000000e-02 660.22)" class="st0 st1 st2">,,****//////((((((((#######%#((####/%#####*###%#%#%%%%#/#####%#(####((#(#((#((%((/##%&amp;###%((#%/(((%(%########,(*(##*#,((#(((##(#((%##/#%##%###(/(/((/((/(/#((#/#(##(((((##/((###((&amp;%&amp;&amp;*##%#(&amp;#&amp;%(%&amp;%/,((</text>
  <text transform="matrix(1 0 0 1 590.9163 660.22)" class="st0 st1 st2"> </text>
  <text transform="matrix(1 0 0 1 1.000000e-02 667.42)" class="st0 st1 st2">******/(//(((((((((#######%##,((###%####(##############%##%##%##*(/(((,((/(*(/(((/%/#&amp;%%%##.(/###(##&amp;(%%#(((/##(#(###((#,#.###(((/(*((#.(,(((.(.(#((%(%((((/(((/(((##(((,#*(((/(#(%#%%%(#*##((%(#*((((/#</text>
  <text transform="matrix(1 0 0 1 550.5012 667.42)" class="st0 st1 st2"> </text>
  <text transform="matrix(1 0 0 1 1.000000e-02 674.62)" class="st0 st1 st2">****////(((((((((########%%#((((##%%#######&amp;%&amp;##(#(#%%%%%%%%&amp;###(#((*(#(#((##%#(##%%##%%##(##(/(,####(##(##%#(/(#/((#####(%(#%((%#(#((/#(((((#(((((((((((.//(((((((/###(#((#(#(((#,#*#&amp;((#%((%##/(,/###(</text>
  <text transform="matrix(1 0 0 1 583.1907 674.62)" class="st0 st1 st2"> </text>
  <text transform="matrix(1 0 0 1 1.000000e-02 681.82)" class="st0 st1 st2">//*///((((((((((########%%##/(#(,###(#(###%#######%%%/%%#%##(((#((((((#(*#((((#(##%%%%%&amp;#*&amp;#(/((#(##%##%(#(#%(######/#*(/(.((#(*//(/#/#/#(###(#%((/(/((#((#%#((((*((((((##(.(,((*#%#%#&amp;(##,(.#%(((((#((#</text>
  <text transform="matrix(1 0 0 1 568.8469 681.82)" class="st0 st1 st2"> </text>
  <text transform="matrix(1 0 0 1 1.000000e-02 689.02)" class="st0 st1 st2">//////(((((((##(########%%%##(##(########%#########%%#%%%##(*(.(((,(*(*(#*#(#,#*(#%######(%%##((,(/((#,#*%#(,#%(((((##%(#(#*(*/((#/#(((((,(.#((.(,(((*(((*##(#((((((//(####((#,/((##%(%*(#%((%#(#(*((&amp;(( </text>
  <text transform="matrix(1 0 0 1 1.000000e-02 696.22)" class="st0 st1 st2">/////((((((((#(########%#%##/##((#/(##/##%%%%######%###*(#/(((#%####%###(#(#######(%*#%(%*&amp;*#####(#######((##/#(#%(%(((((((###((#((/(/####(((((/(/((//(*/((((//(#(#((#((##%#((((/((#(%%%#.#(#%(((/#(%(## </text>
  <text transform="matrix(1 0 0 1 1.000000e-02 703.42)" class="st0 st1 st2">//(/((((((((((########%#%%%%##((###(####%##/###/####%##(#(#(#(,(.#(#.(*((%#/%########%#((#%###*&amp;#(((/(((.#*#/(#(%/#(((#(/((#/((*/(//#,(*#(/*#(%##%(/(//((*/(/(/###(#,//#((#((//%#(##%#%%####&amp;%#%#/((###( </text>
  <text transform="matrix(1 0 0 1 1.000000e-02 710.62)" class="st0 st1 st2">//(((((((((###########%%%%#%##*####%#%##&amp;%%%%%#%#####(##%#%####(#/#######%#%(###%#*####,(#(*(##%##((#((,#(###(%(###(##(####(((((#(#((((#((/(//(/////#(##/((((#(((#(((/((#*(/(./((#%%&amp;&amp;%%#&amp;%%%%%#(#%%##,/</text>
  <text transform="matrix(1 0 0 1 619.6096 710.62)" class="st0 st1 st2"> </text>
  <text transform="matrix(1 0 0 1 1.000000e-02 717.82)" class="st0 st1 st2">/((((((((((#(#######%#%*%/%%%%#######%#%%##/#/#(#,(,(##%((######(#(#(##%#%#(,#*#((#%%##%(##(%/,.,*,,%%##(#((((#(##((/(#/(######(*#*(,/#/,(,///(((((((/(##(/.# (((##&amp;(((./#/(/(/*(#&amp;%%%%%%%#%&amp;&amp;##(%##/( # </text>
  <text transform="matrix(1 0 0 1 1.000000e-02 725.02)" class="st0 st1 st2">((((((((((((#(#(######%##%%%/###(%####%%########%####(####/(*((/((#######%#%%####%##%(#/#/#((%,***,,%((((/#/(((*(*(/(((/((( (*#(##(###(((/((#((///#(((((/#((((#(/(((((((//*(*/(###%(%%&amp;(#%&amp;@%&amp;(%%*//#### </text>
  <text transform="matrix(1 0 0 1 1.000000e-02 732.22)" class="st0 st1 st2">(((((((#((#(((#####%%%#%%#%%%%%%%#####%##(#(((#/((%,(/#(##%%%%##(%%#%/#(#%/(((%#%###%%####%##%%#,*%###(#(((((((((#(((((((((//(,( (#(./,//(((#/(#(,#.(/*/##///(,//(((/(((((#(/*##%#%%%@&amp;#(@@&amp;%#(#(((%#(/, </text>
  <text transform="matrix(1 0 0 1 1.000000e-02 739.42)" class="st0 st1 st2">(((((#(##(((######%%&amp;%%%%%%%/%/%%%##%###(##%########(#/#*%##,#*%(%###%%%%#####(##*#.#(,##%,#,#((,#*(#((/(%((/(/(/((*/((*(*(/(%#(/(/((((/(//(/(///#(/#((((((((*(((.//#(((#,(((%#####%&amp;&amp;%%@@@#%###*((/*/(#</text>
  <text transform="matrix(1 0 0 1 594.1331 739.42)" class="st0 st1 st2"> </text>
  <text transform="matrix(1 0 0 1 1.000000e-02 746.62)" class="st0 st1 st2">(((((((((#(######%%%&amp;&amp;%%%%%%%&amp;%%%%%%#%##%%##/(#%%%%##%#%(%%#%##(#(#((.%,#(%/(/(####%%&amp;%##(###(###(%%%#(%(%%%%#((#*//((/#(((((#(#%/#*((/,/,#//.//#(/( #./(/##/((((//((#((/((((((/#%%&amp;&amp;&amp;%@@%%%%(%//#(*/(## </text>
  <text transform="matrix(1 0 0 1 1.000000e-02 753.82)" class="st0 st1 st2">((((((((#(#######%%&amp;&amp;&amp;&amp;&amp;&amp;%%%%%(%%%%%%%%#%###(####%%#(###*#*###((##(#(#%##%#%####/##%#%(%/#((,/*((#/#,##%#/##%(%/###%(##((/.*.%(#(###((((((#((((/((((////#*(#(#.( #(/(#((#(((/#((%#%&amp;&amp;#&amp;%%(##(#///((/*/./ </text>
  <text transform="matrix(1 0 0 1 1.000000e-02 761.02)" class="st0 st1 st2">(((((((#(#######%#&amp;&amp;&amp;%&amp;#&amp;&amp;&amp;%%%%%%(#/%%/#,##%*#/##%##%######(###%#*(,(#((#(#(###%%#%%#(###((#(#(((#(####%(*((((/##/#((#####(#(/(.#//.(*(/((,(.((*/(#(/(/#//##%((/((#,((###(#(((,#%(%@%&amp;##(#/((///(*(,(#%#</text>
  <text transform="matrix(1 0 0 1 588.9797 761.02)" class="st0 st1 st2"> </text>
  <text transform="matrix(1 0 0 1 1.000000e-02 768.22)" class="st0 st1 st2">((((((##########%&amp;&amp;&amp;&amp;&amp;&amp;&amp;&amp;&amp;&amp;#&amp;&amp;%%%#%%%%%%##%%%#%##%%%#&amp;#@##&amp;%&amp;######((#%#%(##/((#*#%%#(###(#(((#%/#(#*#,##(*(*#(#.#.%((,/,#((((/((((/((((##(/#/(///##((.(((,(##((/#(/#(##%(#((/(%&amp;%%%&amp;%%#(#(((((/(%((((//</text>
</svg>
